<svg version="1.1" viewBox="-432 -450 864 900"
     width="864" height="900" preserveAspectRatio="xMidYMin meet"
     xmlns="http://www.w3.org/2000/svg">
<style>
    svg {
        stroke-width: 2px;
        stroke: #b3b3b3ff;
        fill: #e4e4e1ff;
        background-color: #ffffffff;
    }
    text {
        font-weight: bold;
        stroke: none;
        fill: black;
        text-anchor: middle;
        font-size: 20px;
    }
    .q {
        fill: #59b201ff;
    }
    .r {
        fill: #0099e5ff;
    }
    .s {
        fill: #e619e5ff;
    }
    .style-1 {
        fill: #add8e6ff;
    }
</style><g class="style-1" transform="translate(0,300),rotate(-30)">
    <polygon points="100,0 50,-87 -50,-87 -100,-0 -50,87 50,87">
    </polygon>
    <text transform="rotate(-90) translate(60, 0) rotate(90) rotate(30) translate(0,10)" class="q">-1</text>
    <text transform="rotate(-90) translate(-30, 52) rotate(90) rotate(30) translate(0,10)" class="r">&#43;2</text>
    <text transform="rotate(-90) translate(-30, -52) rotate(90) rotate(30) translate(0,10)" class="s">-1</text>
</g><g class="style-1" transform="translate(-259.8076211353316,150),rotate(-30)">
    <polygon points="100,0 50,-87 -50,-87 -100,-0 -50,87 50,87">
    </polygon>
    <text transform="rotate(-90) translate(60, 0) rotate(90) rotate(30) translate(0,10)" class="q">-2</text>
    <text transform="rotate(-90) translate(-30, 52) rotate(90) rotate(30) translate(0,10)" class="r">&#43;1</text>
    <text transform="rotate(-90) translate(-30, -52) rotate(90) rotate(30) translate(0,10)" class="s">&#43;1</text>
</g><g class="style-1" transform="translate(-259.8076211353316,-150),rotate(-30)">
    <polygon points="100,0 50,-87 -50,-87 -100,-0 -50,87 50,87">
    </polygon>
    <text transform="rotate(-90) translate(60, 0) rotate(90) rotate(30) translate(0,10)" class="q">-1</text>
    <text transform="rotate(-90) translate(-30, 52) rotate(90) rotate(30) translate(0,10)" class="r">-1</text>
    <text transform="rotate(-90) translate(-30, -52) rotate(90) rotate(30) translate(0,10)" class="s">&#43;2</text>
</g><g class="style-1" transform="translate(0,-300),rotate(-30)">
    <polygon points="100,0 50,-87 -50,-87 -100,-0 -50,87 50,87">
    </polygon>
    <text transform="rotate(-90) translate(60, 0) rotate(90) rotate(30) translate(0,10)" class="q">&#43;1</text>
    <text transform="rotate(-90) translate(-30, 52) rotate(90) rotate(30) translate(0,10)" class="r">-2</text>
    <text transform="rotate(-90) translate(-30, -52) rotate(90) rotate(30) translate(0,10)" class="s">&#43;1</text>
</g><g class="style-1" transform="translate(259.8076211353316,-150),rotate(-30)">
    <polygon points="100,0 50,-87 -50,-87 -100,-0 -50,87 50,87">
    </polygon>
    <text transform="rotate(-90) translate(60, 0) rotate(90) rotate(30) translate(0,10)" class="q">&#43;2</text>
    <text transform="rotate(-90) translate(-30, 52) rotate(90) rotate(30) translate(0,10)" class="r">-1</text>
    <text transform="rotate(-90) translate(-30, -52) rotate(90) rotate(30) translate(0,10)" class="s">-1</text>
</g><g  transform="translate(0,0),rotate(-30)">
    <polygon points="100,0 50,-87 -50,-87 -100,-0 -50,87 50,87">
    </polygon>
    <text transform="rotate(-90) translate(60, 0) rotate(90) rotate(30) translate(0,10)" class="q">q</text>
    <text transform="rotate(-90) translate(-30, 52) rotate(90) rotate(30) translate(0,10)" class="r">r</text>
    <text transform="rotate(-90) translate(-30, -52) rotate(90) rotate(30) translate(0,10)" class="s">s</text>
</g><g class="style-1" transform="translate(259.8076211353316,150),rotate(-30)">
    <polygon points="100,0 50,-87 -50,-87 -100,-0 -50,87 50,87">
    </polygon>
    <text transform="rotate(-90) translate(60, 0) rotate(90) rotate(30) translate(0,10)" class="q">&#43;1</text>
    <text transform="rotate(-90) translate(-30, 52) rotate(90) rotate(30) translate(0,10)" class="r">&#43;1</text>
    <text transform="rotate(-90) translate(-30, -52) rotate(90) rotate(30) translate(0,10)" class="s">-2</text>
</g>
</svg>
